<svg width="64" height="64" viewBox="0 0 64 64" fill="none" xmlns="http://www.w3.org/2000/svg">
  <rect width="64" height="64" rx="14" fill="#101114"/>
  <path d="M17 18H24V40H38V46H17V18Z" fill="#FFFFFF"/>
  <path d="M43.2 18C48.8 18 52.3 21 52.3 25.5H45.5C45.4 24 44.5 23 42.9 23C41.4 23 40.5 23.8 40.5 25C40.5 29.1 52.9 27.3 52.9 37.2C52.9 42.7 48.6 46.4 42.5 46.4C36.2 46.4 32.1 43.1 31.9 37.8H38.8C39 39.5 40.1 40.6 42.2 40.6C44.1 40.6 45.2 39.7 45.2 38.3C45.2 34 32.8 36 32.8 26.2C32.8 21.3 36.8 18 43.2 18Z" fill="#10A4A6"/>
  <path d="M16 52H49" stroke="#F5A524" stroke-width="4" stroke-linecap="round"/>
</svg>
