<svg width="64" height="64" viewBox="0 0 64 64" fill="none" xmlns="http://www.w3.org/2000/svg">
  <rect width="64" height="64" rx="14" fill="#0B1020"/>
  <path d="M0 0H64V64H0V0Z" fill="url(#paint0_linear)"/>
  <path d="M13 17H20.5V41.5H33.5V48H13V17Z" fill="#FFFFFF"/>
  <path d="M37.5 16.5C43.3 16.5 47.3 19.5 47.6 24.3H40.8C40.7 22.9 39.7 22 37.9 22C36.3 22 35.3 22.8 35.3 24C35.3 28.2 48.3 26.4 48.3 36.6C48.3 42.1 44 45.9 37.6 45.9C31 45.9 26.8 42.5 26.6 37.2H33.5C33.7 39 35 40.1 37.2 40.1C39.2 40.1 40.4 39.1 40.4 37.7C40.4 33.3 27.5 35.5 27.5 25.1C27.5 20 31.5 16.5 37.5 16.5Z" fill="#A9D7FF"/>
  <path d="M48.3 20.3C50.1 18 52.8 16.5 56.2 16.5C60 16.5 62.8 18 64 20.4V33.3C60.2 30.8 51.2 31.6 51.2 25.1C51.2 20 55.2 16.5 61.2 16.5C62.2 16.5 63.1 16.6 64 16.8V24.6C63.6 23 62.4 22 60.8 22C59.1 22 58.1 22.8 58.1 24C58.1 27.9 64 27.1 64 32.4V45C62.3 45.6 60.3 45.9 58.1 45.9C51.5 45.9 47.3 42.5 47.1 37.2H54C54.2 39 55.5 40.1 57.7 40.1C59.7 40.1 60.9 39.1 60.9 37.7C60.9 33.3 48 35.5 48 25.1C48 23.3 48.4 21.7 49.2 20.4L48.3 20.3Z" fill="#FFB000"/>
  <path d="M13 54H51" stroke="#FFB000" stroke-width="4" stroke-linecap="round"/>
  <defs>
    <linearGradient id="paint0_linear" x1="0" y1="0" x2="64" y2="64" gradientUnits="userSpaceOnUse">
      <stop stop-color="#0B1020"/>
      <stop offset="1" stop-color="#2558FF"/>
    </linearGradient>
  </defs>
</svg>
